<svg width="41" height="146" viewBox="0 0 41 146" fill="none" xmlns="http://www.w3.org/2000/svg">
<ellipse cx="4.23968" cy="4.23977" rx="4.23968" ry="4.23977" transform="matrix(1 8.74228e-08 8.74228e-08 -1 31.5233 145.003)" fill="#121212"/>
<ellipse cx="4.23968" cy="4.23977" rx="4.23968" ry="4.23977" transform="matrix(1 8.74228e-08 8.74228e-08 -1 31.5234 122.956)" fill="#121212"/>
<ellipse cx="4.23968" cy="4.23977" rx="4.23968" ry="4.23977" transform="matrix(1 8.74228e-08 8.74228e-08 -1 31.5234 100.909)" fill="#121212"/>
<ellipse cx="4.23968" cy="4.23977" rx="4.23968" ry="4.23977" transform="matrix(1 8.74228e-08 8.74228e-08 -1 31.5234 78.8623)" fill="#121212"/>
<ellipse cx="4.23968" cy="4.23977" rx="4.23968" ry="4.23977" transform="matrix(1 8.74228e-08 8.74228e-08 -1 31.5234 56.8157)" fill="#121212"/>
<ellipse cx="4.23968" cy="4.23977" rx="4.23968" ry="4.23977" transform="matrix(1 8.74228e-08 8.74228e-08 -1 31.5234 34.7688)" fill="#121212"/>
<ellipse cx="4.23968" cy="4.23977" rx="4.23968" ry="4.23977" transform="matrix(1 8.74228e-08 8.74228e-08 -1 31.5234 8.48218)" fill="#121212"/>
<ellipse cx="4.23968" cy="4.23977" rx="4.23968" ry="4.23977" transform="matrix(1 8.74228e-08 8.74228e-08 -1 16.2603 145.003)" fill="#121212"/>
<ellipse cx="4.23968" cy="4.23977" rx="4.23968" ry="4.23977" transform="matrix(1 8.74228e-08 8.74228e-08 -1 16.2603 122.956)" fill="#121212"/>
<ellipse cx="4.23968" cy="4.23977" rx="4.23968" ry="4.23977" transform="matrix(1 8.74228e-08 8.74228e-08 -1 16.2603 100.909)" fill="#121212"/>
<ellipse cx="4.23968" cy="4.23977" rx="4.23968" ry="4.23977" transform="matrix(1 8.74228e-08 8.74228e-08 -1 16.2603 78.8623)" fill="#121212"/>
<ellipse cx="4.23968" cy="4.23977" rx="4.23968" ry="4.23977" transform="matrix(1 8.74228e-08 8.74228e-08 -1 16.2603 56.8154)" fill="#121212"/>
<ellipse cx="4.23968" cy="4.23977" rx="4.23968" ry="4.23977" transform="matrix(1 8.74228e-08 8.74228e-08 -1 16.2603 34.7688)" fill="#121212"/>
<ellipse cx="4.23968" cy="4.23977" rx="4.23968" ry="4.23977" transform="matrix(1 8.74228e-08 8.74228e-08 -1 16.2603 8.48218)" fill="#121212"/>
<ellipse cx="4.23968" cy="4.23977" rx="4.23968" ry="4.23977" transform="matrix(1 8.74228e-08 8.74228e-08 -1 0.997314 145.003)" fill="#121212"/>
<ellipse cx="4.23968" cy="4.23977" rx="4.23968" ry="4.23977" transform="matrix(1 8.74228e-08 8.74228e-08 -1 0.997314 122.956)" fill="#121212"/>
<ellipse cx="4.23968" cy="4.23977" rx="4.23968" ry="4.23977" transform="matrix(1 8.74228e-08 8.74228e-08 -1 0.997314 100.909)" fill="#121212"/>
<ellipse cx="4.23968" cy="4.23977" rx="4.23968" ry="4.23977" transform="matrix(1 8.74228e-08 8.74228e-08 -1 0.997314 78.8623)" fill="#121212"/>
<ellipse cx="4.23968" cy="4.23977" rx="4.23968" ry="4.23977" transform="matrix(1 8.74228e-08 8.74228e-08 -1 0.997314 56.8154)" fill="#121212"/>
<ellipse cx="4.23968" cy="4.23977" rx="4.23968" ry="4.23977" transform="matrix(1 8.74228e-08 8.74228e-08 -1 0.997314 34.7688)" fill="#121212"/>
<ellipse cx="4.23968" cy="4.23977" rx="4.23968" ry="4.23977" transform="matrix(1 8.74228e-08 8.74228e-08 -1 0.997314 8.48218)" fill="#121212"/>
</svg>
