<svg width="41" height="120" viewBox="0 0 41 120" fill="none" xmlns="http://www.w3.org/2000/svg">
<ellipse cx="4.23968" cy="4.23977" rx="4.23968" ry="4.23977" transform="matrix(1 8.74228e-08 8.74228e-08 -1 31.5233 119.003)" fill="#FDFCFC"/>
<ellipse cx="4.23968" cy="4.23977" rx="4.23968" ry="4.23977" transform="matrix(1 8.74228e-08 8.74228e-08 -1 31.5234 96.9561)" fill="#FDFCFC"/>
<ellipse cx="4.23968" cy="4.23977" rx="4.23968" ry="4.23977" transform="matrix(1 8.74228e-08 8.74228e-08 -1 31.5234 74.9092)" fill="#FDFCFC"/>
<ellipse cx="4.23968" cy="4.23977" rx="4.23968" ry="4.23977" transform="matrix(1 8.74228e-08 8.74228e-08 -1 31.5234 52.8623)" fill="#FDFCFC"/>
<ellipse cx="4.23968" cy="4.23977" rx="4.23968" ry="4.23977" transform="matrix(1 8.74228e-08 8.74228e-08 -1 31.5234 30.8157)" fill="#FDFCFC"/>
<ellipse cx="4.23968" cy="4.23977" rx="4.23968" ry="4.23977" transform="matrix(1 8.74228e-08 8.74228e-08 -1 31.5234 8.7688)" fill="#FDFCFC"/>
<ellipse cx="4.23968" cy="4.23977" rx="4.23968" ry="4.23977" transform="matrix(1 8.74228e-08 8.74228e-08 -1 16.2603 119.003)" fill="#FDFCFC"/>
<ellipse cx="4.23968" cy="4.23977" rx="4.23968" ry="4.23977" transform="matrix(1 8.74228e-08 8.74228e-08 -1 16.2603 96.9558)" fill="#FDFCFC"/>
<ellipse cx="4.23968" cy="4.23977" rx="4.23968" ry="4.23977" transform="matrix(1 8.74228e-08 8.74228e-08 -1 16.2603 74.9089)" fill="#FDFCFC"/>
<ellipse cx="4.23968" cy="4.23977" rx="4.23968" ry="4.23977" transform="matrix(1 8.74228e-08 8.74228e-08 -1 16.2603 52.8623)" fill="#FDFCFC"/>
<ellipse cx="4.23968" cy="4.23977" rx="4.23968" ry="4.23977" transform="matrix(1 8.74228e-08 8.74228e-08 -1 16.2603 30.8154)" fill="#FDFCFC"/>
<ellipse cx="4.23968" cy="4.23977" rx="4.23968" ry="4.23977" transform="matrix(1 8.74228e-08 8.74228e-08 -1 16.2603 8.7688)" fill="#FDFCFC"/>
<ellipse cx="4.23968" cy="4.23977" rx="4.23968" ry="4.23977" transform="matrix(1 8.74228e-08 8.74228e-08 -1 0.997314 119.003)" fill="#FDFCFC"/>
<ellipse cx="4.23968" cy="4.23977" rx="4.23968" ry="4.23977" transform="matrix(1 8.74228e-08 8.74228e-08 -1 0.997314 96.9558)" fill="#FDFCFC"/>
<ellipse cx="4.23968" cy="4.23977" rx="4.23968" ry="4.23977" transform="matrix(1 8.74228e-08 8.74228e-08 -1 0.997314 74.9092)" fill="#FDFCFC"/>
<ellipse cx="4.23968" cy="4.23977" rx="4.23968" ry="4.23977" transform="matrix(1 8.74228e-08 8.74228e-08 -1 0.997314 52.8623)" fill="#FDFCFC"/>
<ellipse cx="4.23968" cy="4.23977" rx="4.23968" ry="4.23977" transform="matrix(1 8.74228e-08 8.74228e-08 -1 0.997314 30.8154)" fill="#FDFCFC"/>
<ellipse cx="4.23968" cy="4.23977" rx="4.23968" ry="4.23977" transform="matrix(1 8.74228e-08 8.74228e-08 -1 0.997314 8.7688)" fill="#FDFCFC"/>
</svg>
