<svg width="119" height="40" viewBox="0 0 119 40" fill="none" xmlns="http://www.w3.org/2000/svg">
<ellipse cx="4.23968" cy="4.23977" rx="4.23968" ry="4.23977" transform="matrix(4.37114e-08 -1 -1 -4.37114e-08 119 9.47217)" fill="black"/>
<ellipse cx="4.23968" cy="4.23977" rx="4.23968" ry="4.23977" transform="matrix(4.37114e-08 -1 -1 -4.37114e-08 96.9534 9.47217)" fill="black"/>
<ellipse cx="4.23968" cy="4.23977" rx="4.23968" ry="4.23977" transform="matrix(4.37114e-08 -1 -1 -4.37114e-08 74.9065 9.47217)" fill="black"/>
<ellipse cx="4.23968" cy="4.23977" rx="4.23968" ry="4.23977" transform="matrix(4.37114e-08 -1 -1 -4.37114e-08 52.8596 9.47217)" fill="black"/>
<ellipse cx="4.23968" cy="4.23977" rx="4.23968" ry="4.23977" transform="matrix(4.37114e-08 -1 -1 -4.37114e-08 30.813 9.47217)" fill="black"/>
<ellipse cx="4.23968" cy="4.23977" rx="4.23968" ry="4.23977" transform="matrix(4.37114e-08 -1 -1 -4.37114e-08 8.76611 9.47217)" fill="black"/>
<ellipse cx="4.23968" cy="4.23977" rx="4.23968" ry="4.23977" transform="matrix(4.37114e-08 -1 -1 -4.37114e-08 119 24.7351)" fill="black"/>
<ellipse cx="4.23968" cy="4.23977" rx="4.23968" ry="4.23977" transform="matrix(4.37114e-08 -1 -1 -4.37114e-08 96.9531 24.7351)" fill="black"/>
<ellipse cx="4.23968" cy="4.23977" rx="4.23968" ry="4.23977" transform="matrix(4.37114e-08 -1 -1 -4.37114e-08 74.9062 24.7351)" fill="black"/>
<ellipse cx="4.23968" cy="4.23977" rx="4.23968" ry="4.23977" transform="matrix(4.37114e-08 -1 -1 -4.37114e-08 52.8596 24.7351)" fill="black"/>
<ellipse cx="4.23968" cy="4.23977" rx="4.23968" ry="4.23977" transform="matrix(4.37114e-08 -1 -1 -4.37114e-08 30.8127 24.7351)" fill="black"/>
<ellipse cx="4.23968" cy="4.23977" rx="4.23968" ry="4.23977" transform="matrix(4.37114e-08 -1 -1 -4.37114e-08 8.76611 24.7351)" fill="black"/>
<ellipse cx="4.23968" cy="4.23977" rx="4.23968" ry="4.23977" transform="matrix(4.37114e-08 -1 -1 -4.37114e-08 119 39.998)" fill="black"/>
<ellipse cx="4.23968" cy="4.23977" rx="4.23968" ry="4.23977" transform="matrix(4.37114e-08 -1 -1 -4.37114e-08 96.9531 39.998)" fill="black"/>
<ellipse cx="4.23968" cy="4.23977" rx="4.23968" ry="4.23977" transform="matrix(4.37114e-08 -1 -1 -4.37114e-08 74.9065 39.998)" fill="black"/>
<ellipse cx="4.23968" cy="4.23977" rx="4.23968" ry="4.23977" transform="matrix(4.37114e-08 -1 -1 -4.37114e-08 52.8596 39.998)" fill="black"/>
<ellipse cx="4.23968" cy="4.23977" rx="4.23968" ry="4.23977" transform="matrix(4.37114e-08 -1 -1 -4.37114e-08 30.8127 39.998)" fill="black"/>
<ellipse cx="4.23968" cy="4.23977" rx="4.23968" ry="4.23977" transform="matrix(4.37114e-08 -1 -1 -4.37114e-08 8.76611 39.998)" fill="black"/>
</svg>
