<svg width="92" height="92" viewBox="0 0 92 92" fill="none" xmlns="http://www.w3.org/2000/svg">
<path d="M50.6815 22.0123C50.6815 24.8273 48.4677 27.0245 45.8408 27.0245C43.2138 27.0245 41 24.8273 41 22.0123C41 19.1972 43.2138 17 45.8408 17C48.4677 17 50.6815 19.1972 50.6815 22.0123Z" stroke="url(#paint0_linear_237_1168)" stroke-width="4"/>
<path d="M40.5442 40.1716L54.6863 54.3138C62.4968 62.1242 73.8938 63.3905 80.1422 57.1422L66 43C58.1896 35.1896 46.7925 33.9233 40.5442 40.1716Z" fill="#1095D9"/>
<path d="M63.1716 17.5442L77.3138 31.6863C85.1242 39.4968 86.3905 50.8938 80.1422 57.1422L66 43C58.1896 35.1896 56.9233 23.7925 63.1716 17.5442Z" fill="#CB3066"/>
<path d="M73.3609 53.9791C71.2748 54.017 69.5312 52.311 69.4918 50.1421L69.4209 46.2361L73.2191 46.1672C75.3052 46.1293 77.0488 47.8353 77.0882 50.0042C77.1276 52.1731 75.447 53.9412 73.3609 53.9791Z" stroke="#DADADA"/>
<path d="M71.2086 49.7628C70.2684 49.7799 69.4711 49.0094 69.453 48.0152L69.4207 46.2361L71.144 46.2049C72.0841 46.1878 72.8815 46.9583 72.8995 47.9526C72.9176 48.9468 72.1487 49.7458 71.2086 49.7628Z" stroke="#DADADA"/>
<path d="M51.4558 40.1716L37.3137 54.3138C29.5032 62.1242 18.1062 63.3905 11.8578 57.1422L26 43C33.8104 35.1896 45.2075 33.9233 51.4558 40.1716Z" fill="#1095D9"/>
<path d="M28.8284 17.5442L14.6862 31.6863C6.87583 39.4968 5.60948 50.8938 11.8578 57.1422L26 43C33.8104 35.1896 35.0767 23.7925 28.8284 17.5442Z" fill="#CB3066"/>
<path d="M18.6391 53.9791C20.7252 54.017 22.4688 52.311 22.5082 50.1421L22.5791 46.2361L18.7809 46.1672C16.6948 46.1293 14.9512 47.8353 14.9118 50.0042C14.8724 52.1731 16.553 53.9412 18.6391 53.9791Z" stroke="#DADADA"/>
<path d="M20.7914 49.7628C21.7316 49.7799 22.5289 49.0094 22.547 48.0152L22.5793 46.2361L20.856 46.2049C19.9159 46.1878 19.1185 46.9583 19.1005 47.9526C19.0824 48.9468 19.8513 49.7458 20.7914 49.7628Z" stroke="#DADADA"/>
<defs>
<linearGradient id="paint0_linear_237_1168" x1="45.8408" y1="29.0245" x2="45.8408" y2="15" gradientUnits="userSpaceOnUse">
<stop stop-color="#16BFFD"/>
<stop offset="1" stop-color="#CB3066"/>
</linearGradient>
</defs>
</svg>
