<svg width="46" height="44" viewBox="0 0 46 44" fill="none" xmlns="http://www.w3.org/2000/svg">
<path d="M23.3319 21.408C24.2759 21.584 25.0519 22.056 25.6599 22.824C26.2679 23.592 26.5719 24.472 26.5719 25.464C26.5719 26.36 26.3479 27.152 25.8999 27.84C25.4679 28.512 24.8359 29.04 24.0039 29.424C23.1719 29.808 22.1879 30 21.0519 30H13.8279V13.248H20.7399C21.8759 13.248 22.8519 13.432 23.6679 13.8C24.4999 14.168 25.1239 14.68 25.5399 15.336C25.9719 15.992 26.1879 16.736 26.1879 17.568C26.1879 18.544 25.9239 19.36 25.3959 20.016C24.8839 20.672 24.1959 21.136 23.3319 21.408ZM17.1879 20.16H20.2599C21.0599 20.16 21.6759 19.984 22.1079 19.632C22.5399 19.264 22.7559 18.744 22.7559 18.072C22.7559 17.4 22.5399 16.88 22.1079 16.512C21.6759 16.144 21.0599 15.96 20.2599 15.96H17.1879V20.16ZM20.5719 27.264C21.3879 27.264 22.0199 27.072 22.4679 26.688C22.9319 26.304 23.1639 25.76 23.1639 25.056C23.1639 24.336 22.9239 23.776 22.4439 23.376C21.9639 22.96 21.3159 22.752 20.4999 22.752H17.1879V27.264H20.5719ZM30.7378 30.168C30.1298 30.168 29.6258 29.984 29.2258 29.616C28.8418 29.232 28.6498 28.76 28.6498 28.2C28.6498 27.64 28.8418 27.176 29.2258 26.808C29.6258 26.424 30.1298 26.232 30.7378 26.232C31.3298 26.232 31.8178 26.424 32.2018 26.808C32.5858 27.176 32.7778 27.64 32.7778 28.2C32.7778 28.76 32.5858 29.232 32.2018 29.616C31.8178 29.984 31.3298 30.168 30.7378 30.168Z" fill="#CB3066"/>
<rect x="2" y="2" width="42" height="40" rx="10" stroke="url(#paint0_linear_7_39)" stroke-width="4"/>
<defs>
<linearGradient id="paint0_linear_7_39" x1="4" y1="4" x2="28.5323" y2="47.5811" gradientUnits="userSpaceOnUse">
<stop stop-color="#CB3066"/>
<stop offset="1" stop-color="#16BFFD"/>
</linearGradient>
</defs>
</svg>
