<svg width="32" height="40" viewBox="0 0 32 40" fill="none" xmlns="http://www.w3.org/2000/svg">
<path d="M-2.95937e-07 -6.99382e-07L-1.17016e-06 20C-1.65298e-06 31.0456 7.16352 40 16 40L16 20C16 8.9544 8.83648 -3.13127e-07 -2.95937e-07 -6.99382e-07Z" fill="#1095D9"/>
<path d="M32 -6.99382e-07L32 20C32 31.0456 24.8365 40 16 40L16 20C16 8.9544 23.1635 -3.13127e-07 32 -6.99382e-07Z" fill="#CB3066"/>
<path d="M13.4415 32.9681C11.9397 31.5198 11.913 29.0806 13.4188 27.5191L16.1307 24.707L18.8651 27.344C20.367 28.7923 20.3936 31.2316 18.8878 32.7931C17.382 34.3546 14.9434 34.4165 13.4415 32.9681Z" stroke="#DADADA"/>
<path d="M14.901 28.465C14.2241 27.8123 14.2051 26.7036 14.8954 25.9879L16.1305 24.7071L17.3712 25.9035C18.048 26.5562 18.067 27.6648 17.3767 28.3807C16.6864 29.0965 15.5778 29.1177 14.901 28.465Z" stroke="#DADADA"/>
</svg>
